<?xml version="1.0" encoding="UTF-8"?>
<svg xmlns="http://www.w3.org/2000/svg" xmlns:xlink="http://www.w3.org/1999/xlink" width="512" height="512" viewBox="0 0 512 512">
<path fill-rule="nonzero" fill="rgb(18.823529%, 40.392157%, 84.313725%)" fill-opacity="1" d="M 512 256 C 512 397.386719 397.386719 512 256 512 C 114.613281 512 0 397.386719 0 256 C 0 114.613281 114.613281 0 256 0 C 397.386719 0 512 114.613281 512 256 Z M 512 256 "/>
<path fill="none" stroke-width="8" stroke-linecap="butt" stroke-linejoin="miter" stroke="rgb(100%, 100%, 100%)" stroke-opacity="1" stroke-miterlimit="10" d="M 508 256 C 508 395.175781 395.175781 508 256 508 C 116.824219 508 4 395.175781 4 256 C 4 116.824219 116.824219 4 256 4 C 395.175781 4 508 116.824219 508 256 Z M 508 256 "/>
<path fill-rule="nonzero" fill="rgb(0%, 47.843137%, 42.352941%)" fill-opacity="1" d="M 483.359375 325.144531 C 483.359375 412.523438 412.523438 483.359375 325.144531 483.359375 C 237.761719 483.359375 166.925781 412.523438 166.925781 325.144531 C 166.925781 237.761719 237.761719 166.925781 325.144531 166.925781 C 412.523438 166.925781 483.359375 237.761719 483.359375 325.144531 Z M 483.359375 325.144531 "/>
<path fill="none" stroke-width="8" stroke-linecap="butt" stroke-linejoin="miter" stroke="rgb(100%, 100%, 100%)" stroke-opacity="1" stroke-miterlimit="10" d="M 479.359375 325.144531 C 479.359375 410.316406 410.316406 479.359375 325.144531 479.359375 C 239.972656 479.359375 170.925781 410.316406 170.925781 325.144531 C 170.925781 239.972656 239.972656 170.925781 325.144531 170.925781 C 410.316406 170.925781 479.359375 239.972656 479.359375 325.144531 Z M 479.359375 325.144531 "/>
<path fill-rule="nonzero" fill="rgb(61.960784%, 13.72549%, 69.803922%)" fill-opacity="1" d="M 465.660156 367.875 C 465.660156 421.878906 421.878906 465.660156 367.875 465.660156 C 313.871094 465.660156 270.09375 421.878906 270.09375 367.875 C 270.09375 313.871094 313.871094 270.09375 367.875 270.09375 C 421.878906 270.09375 465.660156 313.871094 465.660156 367.875 Z M 465.660156 367.875 "/>
<path fill="none" stroke-width="8" stroke-linecap="butt" stroke-linejoin="miter" stroke="rgb(100%, 100%, 100%)" stroke-opacity="1" stroke-miterlimit="10" d="M 461.660156 367.875 C 461.660156 419.671875 419.671875 461.660156 367.875 461.660156 C 316.082031 461.660156 274.09375 419.671875 274.09375 367.875 C 274.09375 316.082031 316.082031 274.09375 367.875 274.09375 C 419.671875 274.09375 461.660156 316.082031 461.660156 367.875 Z M 461.660156 367.875 "/>
<path fill-rule="nonzero" fill="rgb(79.6%, 23.5%, 20%)" fill-opacity="1" d="M 454.71875 394.285156 C 454.71875 427.664062 427.664062 454.71875 394.285156 454.71875 C 360.910156 454.71875 333.851562 427.664062 333.851562 394.285156 C 333.851562 360.910156 360.910156 333.851562 394.285156 333.851562 C 427.664062 333.851562 454.71875 360.910156 454.71875 394.285156 Z M 454.71875 394.285156 "/>
<path fill="none" stroke-width="8" stroke-linecap="butt" stroke-linejoin="miter" stroke="rgb(100%, 100%, 100%)" stroke-opacity="1" stroke-miterlimit="10" d="M 450.71875 394.285156 C 450.71875 425.453125 425.453125 450.71875 394.285156 450.71875 C 363.121094 450.71875 337.851562 425.453125 337.851562 394.285156 C 337.851562 363.121094 363.121094 337.851562 394.285156 337.851562 C 425.453125 337.851562 450.71875 363.121094 450.71875 394.285156 Z M 450.71875 394.285156 "/>
</svg>
